<svg xmlns="http://www.w3.org/2000/svg" viewBox="0 -120 3600 1500" width="3600" height="1500" style="background-color: white; font-family: Arial, sans-serif;">
<defs>
  <marker id="arr" viewBox="0 0 10 10" refX="10" refY="5" markerWidth="6" markerHeight="6" orient="auto-start-reverse">
    <path d="M 0 0 L 10 5 L 0 10 z" fill="#333" />
  </marker>
  <marker id="arr-red" viewBox="0 0 10 10" refX="10" refY="5" markerWidth="6" markerHeight="6" orient="auto-start-reverse">
    <path d="M 0 0 L 10 5 L 0 10 z" fill="#d32f2f" />
  </marker>
  <marker id="arr-blue" viewBox="0 0 10 10" refX="10" refY="5" markerWidth="6" markerHeight="6" orient="auto-start-reverse">
    <path d="M 0 0 L 10 5 L 0 10 z" fill="#1976d2" />
  </marker>
  <style>
    .top-band { fill: #f6f9fc; stroke: #d7e3ef; stroke-width: 1.5; rx: 18; }
    .top-box { fill: #eef5fb; stroke: #5f7d99; stroke-width: 2; rx: 12; }
    .stage-bg { fill: #fcfcfc; stroke: #eee; stroke-width: 2; stroke-dasharray: 10,5; rx: 10; }
    .lbl { fill: #aaaaaa; font-size: 28px; font-weight: bold; font-style: italic; text-anchor: middle; }
    .reg { fill: #fff3cd; stroke: #ffc107; stroke-width: 2; }
    .comp { fill: #e2f0d9; stroke: #548235; stroke-width: 2; rx: 5; }
    .mem { fill: #ddebf7; stroke: #2e75b6; stroke-width: 2; rx: 5; }
    .ctrl { fill: #fce4ec; stroke: #c2185b; stroke-width: 2; rx: 25; }
    .mux { fill: #eaddf6; stroke: #805ad5; stroke-width: 2; }
    .alu { fill: #d0e3f5; stroke: #2b6cb0; stroke-width: 2; }
    .line { fill: none; stroke: #444; stroke-width: 2; stroke-linejoin: round; stroke-linecap: round; }
    .line-arr { fill: none; stroke: #444; stroke-width: 2; marker-end: url(#arr); stroke-linejoin: round; stroke-linecap: round; }
    .line-red { fill: none; stroke: #d32f2f; stroke-width: 2; marker-end: url(#arr-red); stroke-linejoin: round; stroke-linecap: round; }
    .line-blue { fill: none; stroke: #1976d2; stroke-width: 2; marker-end: url(#arr-blue); stroke-linejoin: round; stroke-linecap: round; stroke-dasharray: 4,4; }
    .txt-c { text-anchor: middle; dominant-baseline: central; fill: #111; font-weight: bold; font-size: 12px; }
    .txt-sc { text-anchor: middle; dominant-baseline: central; fill: #111; font-weight: bold; font-size: 10px; }
    .txt-s { text-anchor: middle; dominant-baseline: central; fill: #222; font-size: 9px; font-weight: bold; }
    .txt-l { text-anchor: start; dominant-baseline: central; fill: #111; font-weight: bold; font-size: 10px; }
    .txt-top { text-anchor: middle; dominant-baseline: central; fill: #1b3853; font-size: 10px; font-weight: bold; }
    .ext-title { text-anchor: middle; dominant-baseline: central; fill: #12324d; font-size: 22px; font-weight: bold; }
    .ext-subtitle { text-anchor: middle; dominant-baseline: central; fill: #44576a; font-size: 12px; font-weight: bold; }
    .ext-band-title { text-anchor: middle; dominant-baseline: central; fill: #334155; font-size: 16px; font-weight: bold; }
    .ext-box { fill: #ffffff; stroke: #64748b; stroke-width: 2; rx: 10; }
    .ext-bus { fill: #eef5fb; stroke: #5f7d99; stroke-width: 2; rx: 10; }
    .ext-periph { fill: #e2f0d9; stroke: #548235; stroke-width: 2; rx: 10; }
    .ext-irq { fill: #fce4ec; stroke: #c2185b; stroke-width: 2; rx: 10; }
    .ext-io { fill: #fff7ed; stroke: #c05621; stroke-width: 2; rx: 8; }
    .ext-leaf { fill: #f8fafc; stroke: #94a3b8; stroke-width: 1.5; rx: 7; }
    .ext-txt { text-anchor: middle; dominant-baseline: central; fill: #111827; font-size: 13px; font-weight: bold; }
    .ext-txt-sm { text-anchor: middle; dominant-baseline: central; fill: #334155; font-size: 10.5px; font-weight: bold; }
    .ext-txt-left { text-anchor: start; dominant-baseline: central; fill: #111827; font-size: 12px; font-weight: bold; }
    .ext-txt-left-sm { text-anchor: start; dominant-baseline: central; fill: #334155; font-size: 10px; font-weight: bold; }
    .ext-wire-bg { fill: none; stroke: #ffffff; stroke-width: 9; stroke-linejoin: round; stroke-linecap: round; }
    .ext-wire { fill: none; stroke: #374151; stroke-width: 3; marker-end: url(#arr); stroke-linejoin: round; stroke-linecap: round; }
    .ext-wire-blue { fill: none; stroke: #1976d2; stroke-width: 3; marker-end: url(#arr-blue); stroke-linejoin: round; stroke-linecap: round; }
    .ext-wire-red { fill: none; stroke: #d32f2f; stroke-width: 3; marker-end: url(#arr-red); stroke-linejoin: round; stroke-linecap: round; }
    .ext-wire-dash { fill: none; stroke: #64748b; stroke-width: 2.5; marker-end: url(#arr); stroke-linejoin: round; stroke-linecap: round; stroke-dasharray: 8,6; }
  </style>
</defs>
<g transform="scale(1.2)">
  <g id="top-level-band">
    <rect class="top-band" x="20" y="-72" width="1610" height="132" />
  </g>
  <g id="stage-backgrounds">
    <rect class="stage-bg" x="20" y="136" width="300" height="840" />
    <rect class="stage-bg" x="390" y="136" width="320" height="840" />
    <rect class="stage-bg" x="780" y="136" width="350" height="840" />
    <rect class="stage-bg" x="1185" y="136" width="300" height="840" />
    <rect class="stage-bg" x="1540" y="136" width="280" height="840" />
  </g>

  <g id="wires">
    <path class="line-arr" d="M 103 495 H 130" />
    <path class="line-arr" d="M 164 495 H 215" />
    <path class="line-arr" d="M 293 495 H 335" />

    <path class="line-blue" d="M 147 -6 V 461" />
    <path class="line-blue" d="M 330 -6 V 122 H 352 V 136" />
    <path class="line-blue" d="M 530 -6 V 122 H 742 V 136" />
    <path class="line-blue" d="M 710 -6 V 122 H 1162 V 136" />

    <path class="line" d="M 370 495 H 395 V 171" />
    <path class="line-arr" d="M 395 171 H 470" />
    <path class="line-arr" d="M 395 244 H 470" />
    <path class="line-arr" d="M 395 316 H 422" />
    <path class="line-arr" d="M 395 326 H 497" />
    <path class="line-arr" d="M 395 470 H 470" />
    <path class="line-arr" d="M 395 611 H 474" />
    <path class="line-arr" d="M 395 786 H 470" />

    <path class="line-arr" d="M 468 317 H 497" />

    <path class="line-arr" d="M 572 171 H 725" />
    <path class="line-arr" d="M 572 244 H 725" />
    <path class="line-arr" d="M 572 470 H 725" />
    <path class="line-arr" d="M 568 611 H 725" />

    <path class="line-blue" d="M 521 812 V 832 H 340 V 198 H 90 V -6" />
    <text class="txt-s" fill="#1976d2" x="304" y="818">load-use stall</text>

    <path class="line-red" d="M 599 316 H 650 V 98 H 84 V 472 H 70" />
    <text class="txt-l" fill="#d32f2f" x="350" y="102">IdRedirect</text>

    <path class="line-blue" d="M 572 244 H 620 V 84 H 1165 V -6" />

    <path class="line-arr" d="M 760 171 H 900" />
    <path class="line-arr" d="M 760 241 H 935" />
    <path class="line-arr" d="M 760 316 H 910" />
    <path class="line-arr" d="M 760 470 H 820" />
    <path class="line-arr" d="M 760 786 H 930" />

    <path class="line-arr" d="M 853 470 H 875" />
    <path class="line-arr" d="M 853 505 H 875" />
    <path class="line-arr" d="M 908 470 H 948" />
    <path class="line-arr" d="M 908 510 H 948" />
    <path class="line-arr" d="M 853 520 V 686 H 990" />
    <path class="line-arr" d="M 865 470 V 595 H 940" />
    <path class="line-arr" d="M 880 505 V 607 H 940" />
    <path class="line-arr" d="M 1042 510 H 1145" />
    <path class="line-arr" d="M 1023 699 H 1145" />
    <text class="txt-s" x="900" y="566">Fwd Rs1/Rs2</text>

    <path class="line-arr" d="M 990 215 V 190 H 880 V 171 H 900" />
    <path class="line-arr" d="M 1050 601 H 1085 V 183 H 1026" />
    <path class="line-arr" d="M 1028 316 H 1060 V 20 H 975 V -6" />

    <path class="line-red" d="M 963 145 V 78 H 56 V 495 H 70" />
    <text class="txt-l" fill="#d32f2f" x="885" y="82">ExRedirect</text>

    <path class="line-blue" d="M 981 760 V 740 H 800 V 520 H 820" />
    <path class="line-blue" d="M 981 760 V 714 H 990" />
    <text class="txt-s" fill="#1976d2" x="888" y="770">forward sel</text>

    <path class="line-blue" d="M 1070 -26 H 1095" />

    <path class="line-arr" d="M 1180 400 H 1242" />
    <path class="line-arr" d="M 1180 511 H 1284" />
    <path class="line-arr" d="M 1180 591 H 1284" />
    <path class="line-arr" d="M 1180 171 H 1269" />
    <path class="line-arr" d="M 1428 400 H 1435 V -26 H 1425" />
    <path class="line-arr" d="M 1335 490 V 450" />
    <path class="line-arr" d="M 1428 400 H 1440 V 591 H 1386" />
    <path class="line-arr" d="M 1386 591 H 1500" />

    <path class="line-blue" d="M 1335 145 V -6" />
    <path class="line-red" d="M 1225 -6 V 60 H 32 V 518 H 70" />
    <path class="line-blue" d="M 1115 -6 V 44 H 640 V -6" />
    <text class="txt-l" fill="#d32f2f" x="1138" y="64">TrapRedirect</text>

    <path class="line-arr" d="M 1535 489 H 1628" />
    <path class="line-arr" d="M 1698 489 H 1760" />

    <path class="line-blue" d="M 1698 489 H 1750 V 865 H 430 V 488 H 470" />
    <path class="line-blue" d="M 1698 500 H 1738 V 840 H 790 V 520 H 820" />
    <path class="line-blue" d="M 1145 772 H 1060 V 825 H 910 V 780 H 930" />
    <path class="line-blue" d="M 1500 786 H 1420 V 840 H 910 V 792 H 930" />
    <text class="txt-s" fill="#1976d2" x="1228" y="632">EX/MEM, MEM/WB Rd</text>
    <text class="txt-s" fill="#1976d2" x="520" y="850">WbWriteData</text>
  </g>

  <g id="pipe-registers">
    <rect class="reg" x="335" y="136" width="35" height="780" />
    <text class="txt-c" x="352.5" y="526" transform="rotate(-90 352.5,526)" font-size="20px">IF / ID</text>

    <rect class="reg" x="725" y="136" width="35" height="780" />
    <text class="txt-c" x="742.5" y="526" transform="rotate(-90 742.5,526)" font-size="20px">ID / EX</text>

    <rect class="reg" x="1145" y="136" width="35" height="780" />
    <text class="txt-c" x="1162.5" y="526" transform="rotate(-90 1162.5,526)" font-size="20px">EX / MEM</text>

    <rect class="reg" x="1500" y="136" width="35" height="780" />
    <text class="txt-c" x="1517.5" y="526" transform="rotate(-90 1517.5,526)" font-size="20px">MEM / WB</text>
  </g>

  <g id="modules">
    <rect class="top-box" x="40" y="-46" width="700" height="40" />
    <text class="txt-top" x="390" y="-26">PipeFlowCtrl</text>

    <polygon class="mux" points="70,455 103,474 103,516 70,535" />
    <text class="txt-sc" x="86.5" y="495">Mux</text>
    <text class="txt-l" x="25" y="440">NextPcMux</text>

    <rect class="reg" x="130" y="461" width="34" height="68" />
    <text class="txt-sc" x="147" y="495">Pc</text>

    <rect class="mem" x="215" y="451" width="78" height="88" />
    <text class="txt-sc" x="254" y="488">InstrRom</text>
    <text class="txt-sc" x="254" y="502">(ROM)</text>

    <rect class="comp" x="422" y="283" width="46" height="68" />
    <text class="txt-sc" x="445" y="309">Instr</text>
    <text class="txt-sc" x="445" y="323">Fields</text>

    <rect class="ctrl" x="470" y="145" width="102" height="52" />
    <text class="txt-sc" x="521" y="171">ControlUnit</text>

    <rect class="ctrl" x="470" y="220" width="102" height="48" />
    <text class="txt-sc" x="521" y="238">TrapCause</text>
    <text class="txt-sc" x="521" y="252">Gen</text>

    <rect class="comp" x="497" y="290" width="102" height="52" />
    <text class="txt-sc" x="548" y="309">JalRedirect</text>
    <text class="txt-sc" x="548" y="323">(Decode)</text>

    <rect class="comp" x="470" y="413" width="102" height="115" />
    <text class="txt-sc" x="521" y="470">Regfile</text>

    <rect class="comp" x="474" y="590" width="94" height="42" />
    <text class="txt-sc" x="521" y="611">ImmGen</text>

    <rect class="ctrl" x="470" y="760" width="102" height="52" />
    <text class="txt-sc" x="521" y="786">HazardUnit</text>

    <rect class="ctrl" x="900" y="145" width="126" height="52" />
    <text class="txt-s" x="963" y="164">ExecuteRedirect</text>
    <text class="txt-s" x="963" y="178">Ctrl</text>

    <rect class="comp" x="935" y="215" width="110" height="52" />
    <text class="txt-sc" x="990" y="241">PcTargetGen</text>

    <rect class="ctrl" x="910" y="290" width="118" height="52" />
    <text class="txt-s" x="969" y="309">ExecuteCsr</text>
    <text class="txt-s" x="969" y="323">Ctrl</text>

    <rect class="top-box" x="880" y="-46" width="190" height="40" />
    <text class="txt-top" x="975" y="-26">CsrFile</text>

    <polygon class="mux" points="820,430 853,448 853,540 820,558" />
    <text class="txt-sc" x="836.5" y="489">Fwd</text>
    <text class="txt-sc" x="836.5" y="503">Mux</text>

    <polygon class="mux" points="875,420 908,438 908,540 875,558" />
    <text class="txt-s" x="891.5" y="476">ALU</text>
    <text class="txt-s" x="891.5" y="490">Input</text>
    <text class="txt-s" x="891.5" y="504">Mux</text>

    <polygon class="mux" points="990,655 1023,670 1023,728 990,743" />
    <text class="txt-s" x="1006.5" y="687">Store</text>
    <text class="txt-s" x="1006.5" y="701">Data</text>
    <text class="txt-s" x="1006.5" y="715">Mux</text>

    <polygon class="alu" points="948,438 1042,472 1042,548 948,582 948,518 972,510 948,502" />
    <text class="txt-c" x="995" y="510">ALU</text>

    <rect class="comp" x="940" y="580" width="110" height="42" />
    <text class="txt-s" x="995" y="594">Branch</text>
    <text class="txt-s" x="995" y="608">Comparator</text>

    <rect class="ctrl" x="930" y="760" width="102" height="52" />
    <text class="txt-sc" x="981" y="786">ForwardUnit</text>

    <rect class="top-box" x="1095" y="-46" width="260" height="40" />
    <text class="txt-top" x="1225" y="-26">TrapController</text>

    <rect class="top-box" x="1242" y="350" width="186" height="100" />
    <text class="txt-top" x="1335" y="392">DataBus</text>
    <text class="txt-top" x="1335" y="408">Master</text>

    <rect class="top-box" x="1425" y="-46" width="180" height="40" />
    <text class="txt-top" x="1515" y="-26">DataRam</text>

    <rect class="comp" x="1284" y="490" width="102" height="42" />
    <text class="txt-s" x="1335" y="504">Store</text>
    <text class="txt-s" x="1335" y="518">Formatter</text>

    <rect class="comp" x="1284" y="570" width="102" height="42" />
    <text class="txt-s" x="1335" y="584">Load</text>
    <text class="txt-s" x="1335" y="598">Formatter</text>

    <rect class="ctrl" x="1269" y="145" width="132" height="52" />
    <text class="txt-s" x="1335" y="164">MemoryTrap</text>
    <text class="txt-s" x="1335" y="178">Classifier</text>

    <polygon class="mux" points="1628,448 1698,468 1698,510 1628,530" />
    <text class="txt-sc" x="1663" y="482">WB</text>
    <text class="txt-sc" x="1663" y="496">Mux</text>
  </g>

  <g id="stage-labels">
    <text class="lbl" x="170" y="956">Fetch</text>
    <text class="lbl" x="550" y="956">Decode</text>
    <text class="lbl" x="955" y="956">Execute</text>
    <text class="lbl" x="1335" y="956">Memory</text>
    <text class="lbl" x="1680" y="956">Write-Back</text>
  </g>
</g>
<g id="top-view-extension">
  <rect class="top-band" x="2225" y="-72" width="1320" height="1248" rx="18" />
  <text class="ext-title" x="2885" y="-38">TOP external module view</text>
  <text class="ext-subtitle" x="2885" y="-12">Data bus, APB bridge, UART, GPIO, interrupt controller, external pins, and CSR interrupt return path</text>

  <rect class="stage-bg" x="2250" y="26" width="380" height="272" rx="12" />
  <text class="ext-band-title" x="2440" y="54">Native data fabric</text>
  <rect class="ext-bus" x="2280" y="82" width="320" height="92" />
  <text class="ext-txt" x="2440" y="112">DataBusMaster</text>
  <text class="ext-txt-sm" x="2440" y="139">routes MEM-stage native request</text>
  <text class="ext-txt-sm" x="2440" y="158">RAM window / APB window / decode fault</text>
  <rect class="ext-leaf" x="2305" y="202" width="135" height="54" />
  <text class="ext-txt-sm" x="2372.5" y="223">DataBusRouter</text>
  <text class="ext-txt-sm" x="2372.5" y="242">addr decode</text>
  <rect class="ext-leaf" x="2460" y="202" width="115" height="54" />
  <text class="ext-txt-sm" x="2517.5" y="223">DataBusRsp</text>
  <text class="ext-txt-sm" x="2517.5" y="242">Mux</text>

  <rect class="stage-bg" x="2250" y="340" width="380" height="276" rx="12" />
  <text class="ext-band-title" x="2440" y="368">Shared APB bridge</text>
  <rect class="ext-bus" x="2280" y="398" width="320" height="92" />
  <text class="ext-txt" x="2440" y="428">APBMASTER</text>
  <text class="ext-txt-sm" x="2440" y="455">single outstanding MMIO access</text>
  <text class="ext-txt-sm" x="2440" y="474">SETUP / ACCESS / response capture</text>
  <rect class="ext-leaf" x="2305" y="522" width="125" height="54" />
  <text class="ext-txt-sm" x="2367.5" y="543">APBCtrl</text>
  <text class="ext-txt-sm" x="2367.5" y="562">phase FSM</text>
  <rect class="ext-leaf" x="2450" y="522" width="125" height="54" />
  <text class="ext-txt-sm" x="2512.5" y="543">APBMux</text>
  <text class="ext-txt-sm" x="2512.5" y="562">slave select</text>

  <rect class="stage-bg" x="2250" y="654" width="380" height="184" rx="12" />
  <text class="ext-band-title" x="2440" y="682">Direct memory target</text>
  <rect class="mem" x="2280" y="722" width="320" height="74" />
  <text class="ext-txt" x="2440" y="750">DataRam</text>
  <text class="ext-txt-sm" x="2440" y="775">word data memory at LP_DATA_RAM_BASE</text>

  <rect class="stage-bg" x="2670" y="26" width="400" height="360" rx="12" />
  <text class="ext-band-title" x="2870" y="54">UART APB peripheral</text>
  <rect class="ext-periph" x="2700" y="82" width="340" height="80" />
  <text class="ext-txt" x="2870" y="110">APB_UART</text>
  <text class="ext-txt-sm" x="2870" y="136">register interface + serial datapath wrapper</text>
  <rect class="ext-leaf" x="2725" y="190" width="126" height="62" />
  <text class="ext-txt-sm" x="2788" y="213">UartRegs</text>
  <text class="ext-txt-sm" x="2788" y="234">CTRL/STATUS/IRQ</text>
  <rect class="ext-leaf" x="2875" y="190" width="140" height="62" />
  <text class="ext-txt-sm" x="2945" y="213">UartCore</text>
  <text class="ext-txt-sm" x="2945" y="234">baud + FIFOs + FSMs</text>
  <rect class="ext-leaf" x="2725" y="288" width="94" height="46" />
  <text class="ext-txt-sm" x="2772" y="311">baud_rate</text>
  <text class="ext-txt-sm" x="2772" y="326">generator</text>
  <rect class="ext-leaf" x="2833" y="288" width="72" height="46" />
  <text class="ext-txt-sm" x="2869" y="311">uart_rx</text>
  <rect class="ext-leaf" x="2833" y="342" width="72" height="32" />
  <text class="ext-txt-sm" x="2869" y="358">sync_2ff</text>
  <rect class="ext-leaf" x="2919" y="288" width="72" height="46" />
  <text class="ext-txt-sm" x="2955" y="311">rx_fifo</text>
  <rect class="ext-leaf" x="3005" y="288" width="72" height="46" />
  <text class="ext-txt-sm" x="3041" y="311">tx_fifo</text>
  <rect class="ext-leaf" x="3091" y="288" width="72" height="46" />
  <text class="ext-txt-sm" x="3127" y="311">uart_tx</text>

  <rect class="stage-bg" x="2670" y="438" width="400" height="262" rx="12" />
  <text class="ext-band-title" x="2870" y="466">GPIO APB peripheral</text>
  <rect class="ext-periph" x="2700" y="496" width="340" height="78" />
  <text class="ext-txt" x="2870" y="524">APB_GPIO</text>
  <text class="ext-txt-sm" x="2870" y="550">data, direction, IRQ edge/status registers</text>
  <rect class="ext-leaf" x="2730" y="608" width="130" height="58" />
  <text class="ext-txt-sm" x="2795" y="631">GpioRegs</text>
  <text class="ext-txt-sm" x="2795" y="650">MMIO storage</text>
  <rect class="ext-leaf" x="2880" y="608" width="130" height="58" />
  <text class="ext-txt-sm" x="2945" y="631">GpioIrqCtrl</text>
  <text class="ext-txt-sm" x="2945" y="650">edge + sticky IRQ</text>

  <rect class="stage-bg" x="2670" y="752" width="400" height="330" rx="12" />
  <text class="ext-band-title" x="2870" y="780">Interrupt controller</text>
  <rect class="ext-irq" x="2700" y="832" width="340" height="82" />
  <text class="ext-txt" x="2870" y="862">InterruptController</text>
  <text class="ext-txt-sm" x="2870" y="888">PENDING / ENABLE / CLAIM / COMPLETE</text>
  <rect class="ext-leaf" x="2730" y="944" width="130" height="58" />
  <text class="ext-txt-sm" x="2795" y="967">IntcRegIf</text>
  <text class="ext-txt-sm" x="2795" y="986">MMIO regs</text>
  <rect class="ext-leaf" x="2880" y="944" width="130" height="58" />
  <text class="ext-txt-sm" x="2945" y="967">PendingCtrl</text>
  <text class="ext-txt-sm" x="2945" y="986">pending/service</text>
  <rect class="ext-leaf" x="2805" y="1020" width="140" height="46" />
  <text class="ext-txt-sm" x="2875" y="1043">PriorityClaim</text>

  <rect class="stage-bg" x="3120" y="26" width="390" height="1056" rx="12" />
  <text class="ext-band-title" x="3315" y="54">TOP-level pins and global control</text>
  <rect class="ext-io" x="3180" y="105" width="250" height="54" />
  <text class="ext-txt" x="3305" y="132">iUartRx</text>
  <rect class="ext-io" x="3180" y="268" width="250" height="54" />
  <text class="ext-txt" x="3305" y="295">oUartTx</text>
  <rect class="ext-io" x="3180" y="500" width="250" height="54" />
  <text class="ext-txt" x="3305" y="527">iGpioIn[P_GPIO_WIDTH-1:0]</text>
  <rect class="ext-io" x="3180" y="600" width="250" height="70" />
  <text class="ext-txt" x="3305" y="624">oGpioOut</text>
  <text class="ext-txt" x="3305" y="648">oGpioOe</text>
  <rect class="ext-irq" x="3180" y="822" width="250" height="110" />
  <text class="ext-txt" x="3305" y="852">ExtIrqPending</text>
  <text class="ext-txt-sm" x="3305" y="878">feeds CsrFile.mip.MEIP</text>
  <text class="ext-txt-sm" x="3305" y="902">then TrapController gate</text>
  <rect class="ext-bus" x="3180" y="970" width="250" height="74" />
  <text class="ext-txt" x="3305" y="997">handler MMIO loop</text>
  <text class="ext-txt-sm" x="3305" y="1022">CLAIM -> service -> COMPLETE</text>

  <path class="ext-wire-bg" d="M 1714 480 H 2225 V 128 H 2280" />
  <path class="ext-wire-blue" d="M 1714 480 H 2225 V 128 H 2280" />
  <text class="ext-txt-sm" x="1995" y="460">DataBusReq / DataBusRsp</text>

  <path class="ext-wire-bg" d="M 2440 174 V 398" />
  <path class="ext-wire-blue" d="M 2440 174 V 398" />
  <text class="ext-txt-sm" x="2488" y="315">APB window</text>

  <path class="ext-wire-bg" d="M 2280 759 H 2160 V -28 H 1710" />
  <path class="ext-wire" d="M 2280 759 H 2160 V -28 H 1710" />
  <text class="ext-txt-sm" x="2200" y="740">RAM window</text>

  <path class="ext-wire-bg" d="M 2600 444 H 2638 V 122 H 2700" />
  <path class="ext-wire" d="M 2600 444 H 2638 V 122 H 2700" />
  <path class="ext-wire-bg" d="M 2600 444 H 2638 V 535 H 2700" />
  <path class="ext-wire" d="M 2600 444 H 2638 V 535 H 2700" />
  <path class="ext-wire-bg" d="M 2600 444 H 2638 V 873 H 2700" />
  <path class="ext-wire" d="M 2600 444 H 2638 V 873 H 2700" />
  <text class="ext-txt-sm" x="2652" y="426">APB PADDR/PWRITE/PENABLE/PWDATA</text>

  <path class="ext-wire-bg" d="M 3180 132 H 3040" />
  <path class="ext-wire" d="M 3180 132 H 3040" />
  <path class="ext-wire-bg" d="M 3040 295 H 3180" />
  <path class="ext-wire" d="M 3040 295 H 3180" />
  <path class="ext-wire-bg" d="M 3180 527 H 3040" />
  <path class="ext-wire" d="M 3180 527 H 3040" />
  <path class="ext-wire-bg" d="M 3040 635 H 3180" />
  <path class="ext-wire" d="M 3040 635 H 3180" />

  <path class="ext-wire-bg" d="M 2870 386 V 790 H 2700" />
  <path class="ext-wire-red" d="M 2870 386 V 790 H 2700" />
  <text class="ext-txt-sm" x="2820" y="734">UartIrq</text>
  <path class="ext-wire-bg" d="M 2945 666 V 808 H 2700" />
  <path class="ext-wire-red" d="M 2945 666 V 808 H 2700" />
  <text class="ext-txt-sm" x="2988" y="734">GpioIrq</text>

  <path class="ext-wire-bg" d="M 3040 873 H 3180" />
  <path class="ext-wire-red" d="M 3040 873 H 3180" />
  <path class="ext-wire-bg" d="M 3180 877 H 1960 V -26 H 1626" />
  <path class="ext-wire-red" d="M 3180 877 H 1960 V -26 H 1626" />
  <text class="ext-txt-sm" x="2120" y="-42">ExtIrqPending -> CsrFile.mip.MEIP / TrapController</text>

  <path class="ext-wire-bg" d="M 3180 1007 H 3070 V 873" />
  <path class="ext-wire-dash" d="M 3180 1007 H 3070 V 873" />
  <text class="ext-txt-sm" x="3110" y="969">MMIO claim/complete path</text>

  <rect class="ext-box" x="2250" y="888" width="380" height="204" />
  <text class="ext-txt-left" x="2274" y="918">Included external/wrapper modules</text>
  <text class="ext-txt-left-sm" x="2274" y="946">TOP: DataBusMaster, DataRam, APBMASTER,</text>
  <text class="ext-txt-left-sm" x="2274" y="970">APB_UART, APB_GPIO, InterruptController</text>
  <text class="ext-txt-left-sm" x="2274" y="998">Bridge: DataBusRouter, DataBusRspMux,</text>
  <text class="ext-txt-left-sm" x="2274" y="1022">APBCtrl, APBMux</text>
  <text class="ext-txt-left-sm" x="2274" y="1050">Peripherals: UartRegs/Core leaves, GPIO regs/IRQ,</text>
  <text class="ext-txt-left-sm" x="2274" y="1074">INTC reg/pending/priority helpers</text>
</g>
</svg>
